<?xml version="1.0" standalone="no"?>
<!DOCTYPE svg PUBLIC "-//W3C//DTD SVG 20010904//EN"
 "http://www.w3.org/TR/2001/REC-SVG-20010904/DTD/svg10.dtd">
<svg version="1.0" xmlns="http://www.w3.org/2000/svg"
 width="400.000000pt" height="400.000000pt" viewBox="0 0 400.000000 400.000000"
 preserveAspectRatio="xMidYMid meet">
<metadata>
Created by potrace 1.11, written by Peter Selinger 2001-2013
</metadata>
<g transform="translate(0.000000,400.000000) scale(0.100000,-0.100000)"
fill="#000000" stroke="none">
<path d="M0 2000 l0 -2000 2000 0 2000 0 0 2000 0 2000 -2000 0 -2000 0 0
-2000z m2987 1454 c9 -23 -13 -40 -32 -24 -12 10 -13 16 -4 26 15 18 28 18 36
-2z m-919 -11 c-27 -2 -69 -2 -95 0 -27 2 -5 3 47 3 52 0 74 -1 48 -3z m82
-293 c0 -5 -4 -10 -10 -10 -5 0 -10 5 -10 10 0 6 5 10 10 10 6 0 10 -4 10 -10z
m470 -245 l0 -215 69 0 68 0 113 120 112 120 64 0 c35 0 64 -4 64 -9 0 -5 -56
-71 -125 -147 -69 -77 -125 -141 -125 -144 0 -3 56 -67 125 -144 69 -76 125
-142 125 -147 0 -5 -29 -9 -64 -9 l-63 0 -113 120 -112 120 -69 0 -69 0 0
-120 0 -120 -55 0 -55 0 0 160 0 160 -45 0 c-25 0 -45 5 -45 10 0 6 20 10 45
10 l45 0 0 225 0 225 55 0 55 0 0 -215z m-2290 10 l0 -155 265 0 265 0 0 155
0 155 60 0 60 0 0 -370 0 -370 -60 0 -60 0 0 160 0 160 -265 0 -265 0 0 -160
0 -160 -55 0 -55 0 0 370 0 370 55 0 55 0 0 -155z m1470 35 c0 -5 -4 -10 -10
-10 -5 0 -10 5 -10 10 0 6 5 10 10 10 6 0 10 -4 10 -10z m-171 -42 c43 -30 61
-69 61 -130 0 -45 3 -58 15 -58 8 0 15 -7 15 -15 0 -8 -7 -15 -15 -15 -13 0
-15 -27 -15 -180 l0 -180 -246 0 c-273 0 -299 5 -335 64 -16 26 -19 52 -19
164 l0 132 245 0 246 0 -3 63 -3 62 -242 3 -243 2 0 56 0 55 258 -3 c222 -3
260 -5 281 -20z m771 -33 l0 -55 -242 -2 -243 -3 -3 -179 c-2 -137 1 -181 10
-188 7 -4 118 -8 246 -8 l232 0 0 -55 0 -55 -248 0 c-361 0 -352 -7 -353 299
0 308 -8 301 353 301 l248 0 0 -55z m1299 37 c19 -9 44 -30 55 -45 20 -27 21
-41 21 -280 l0 -252 -257 0 c-244 0 -258 1 -285 21 -52 38 -63 76 -63 212 l0
122 244 0 245 0 7 47 c12 80 19 78 -255 81 l-241 2 0 55 0 55 248 0 c215 0
251 -2 281 -18z m-1459 -252 c0 -5 -13 -10 -30 -10 -16 0 -30 5 -30 10 0 6 14
10 30 10 17 0 30 -4 30 -10z m90 6 c0 -11 -19 -15 -25 -6 -3 5 1 10 9 10 9 0
16 -2 16 -4z m80 0 c0 -11 -19 -15 -25 -6 -3 5 1 10 9 10 9 0 16 -2 16 -4z
m720 -12 c0 -9 -7 -14 -17 -12 -25 5 -28 28 -4 28 12 0 21 -6 21 -16z m-850
-135 c0 -5 -7 -9 -15 -9 -15 0 -20 12 -9 23 8 8 24 -1 24 -14z m-1584 -198
c-9 -14 -33 -14 -41 -1 -4 6 -1 18 6 26 11 13 14 13 27 0 8 -8 11 -19 8 -25z
m2024 13 c0 -8 -10 -14 -25 -14 -38 0 -34 24 5 27 11 1 20 -4 20 -13z m890
-40 c0 -14 -21 -19 -33 -7 -9 9 13 34 24 27 5 -3 9 -12 9 -20z m-1500 -184 c0
-5 -4 -10 -10 -10 -5 0 -10 5 -10 10 0 6 5 10 10 10 6 0 10 -4 10 -10z m-410
-20 c0 -5 -4 -10 -10 -10 -5 0 -10 5 -10 10 0 6 5 10 10 10 6 0 10 -4 10 -10z
m-922 -75 c73 -22 82 -34 82 -115 l0 -68 -62 62 c-72 71 -126 93 -203 82 -95
-15 -159 -114 -134 -208 10 -39 42 -62 273 -199 165 -98 206 -153 206 -279 0
-87 -16 -128 -77 -191 -96 -101 -197 -132 -334 -104 -44 8 -106 27 -139 42
l-60 26 0 98 c0 55 2 99 4 99 2 0 14 -21 27 -47 53 -110 135 -167 239 -168
128 0 210 86 210 221 0 65 -32 101 -150 170 -256 149 -299 189 -320 290 -21
98 26 199 117 255 75 47 225 62 321 34z m2457 5 c3 -5 1 -10 -4 -10 -6 0 -11
5 -11 10 0 6 2 10 4 10 3 0 8 -4 11 -10z m-1911 -121 c-3 -5 -10 -7 -15 -3 -5
3 -7 10 -3 15 3 5 10 7 15 3 5 -3 7 -10 3 -15z m720 -150 l7 -60 67 6 c75 8
125 -5 116 -29 -8 -22 -60 -36 -132 -36 l-65 0 6 -249 c4 -177 9 -258 19 -278
20 -41 96 -70 149 -56 48 13 59 1 22 -25 -50 -36 -106 -47 -159 -32 -60 17
-127 80 -144 135 -7 23 -14 128 -16 250 -4 166 -8 217 -21 242 l-16 32 74 80
c41 44 77 80 80 80 4 1 9 -26 13 -60z m756 41 c0 -5 -4 -10 -10 -10 -5 0 -10
5 -10 10 0 6 5 10 10 10 6 0 10 -4 10 -10z m-1236 -125 c71 -35 103 -67 130
-127 49 -111 57 -210 26 -309 -37 -119 -120 -201 -235 -234 -210 -62 -415 127
-398 366 8 119 67 235 144 286 88 58 237 66 333 18z m1220 9 c93 -32 165 -130
188 -253 22 -118 -26 -263 -117 -354 -149 -149 -394 -98 -493 102 -25 51 -27
66 -27 171 0 111 1 118 33 183 39 78 119 150 187 166 55 14 169 6 229 -15z
m444 -16 c2 -21 7 -38 12 -38 6 0 38 15 74 34 35 19 86 37 113 41 90 12 184
-29 218 -96 18 -34 34 -256 35 -466 l0 -133 -64 0 -63 0 -5 253 c-5 274 -12
309 -63 343 -42 27 -117 30 -169 6 -69 -33 -83 -58 -91 -166 -7 -97 6 -388 20
-418 6 -16 0 -18 -69 -18 l-76 0 0 316 c0 207 -4 322 -11 336 -14 25 -11 28
48 38 79 13 88 10 91 -32z m550 -361 c2 -10 -3 -17 -12 -17 -18 0 -29 16 -21
31 9 14 29 6 33 -14z m-1028 -398 c0 -5 -7 -9 -15 -9 -15 0 -20 12 -9 23 8 8
24 -1 24 -14z m-640 -59 c0 -5 -4 -10 -10 -10 -5 0 -10 5 -10 10 0 6 5 10 10
10 6 0 10 -4 10 -10z m1290 -225 c0 -8 -7 -15 -15 -15 -16 0 -20 12 -8 23 11
12 23 8 23 -8z m-85 -255 c-5 -8 -11 -8 -17 -2 -6 6 -7 16 -3 22 5 8 11 8 17
2 6 -6 7 -16 3 -22z"/>
<path d="M1200 2511 c0 -44 4 -60 16 -65 9 -3 94 -6 190 -6 l174 0 0 65 0 65
-190 0 -190 0 0 -59z"/>
<path d="M3280 2516 c0 -33 5 -58 14 -65 9 -8 69 -11 192 -9 l179 3 3 63 3 62
-196 0 -195 0 0 -54z"/>
<path d="M1318 1621 c-99 -78 -117 -291 -39 -465 37 -81 68 -106 133 -106 90
0 145 50 173 155 18 69 19 135 4 225 -13 83 -37 137 -79 178 -31 30 -39 32
-101 32 -50 0 -72 -5 -91 -19z m112 -461 c0 -5 -4 -10 -10 -10 -5 0 -10 5 -10
10 0 6 5 10 10 10 6 0 10 -4 10 -10z"/>
<path d="M2587 1636 c-52 -19 -71 -38 -98 -99 -20 -45 -24 -68 -24 -172 0
-145 22 -214 90 -282 39 -40 46 -43 96 -43 75 0 111 24 151 102 28 55 32 75
36 159 6 143 -37 282 -102 324 -33 22 -105 27 -149 11z"/>
</g>
</svg>
